<svg id="Layer_1" data-name="Layer 1" xmlns="http://www.w3.org/2000/svg" viewBox="0 0 128 128"><defs><style>.cls-1{fill:#63788d;}.cls-2{fill:#183d5a;}.cls-3{fill:#36329a;}</style></defs><path class="cls-1" d="M113.36,25.34l9.32.06a2.28,2.28,0,0,1,2,3.39L81.43,106.17a2.27,2.27,0,0,1-4,0l-4.64-8.33a2.23,2.23,0,0,1,0-2.21l38.54-69.12A2.25,2.25,0,0,1,113.36,25.34Z"/><path class="cls-2" d="M33.6,12.42H29.09a2.27,2.27,0,0,0-2,3.37l.9,1.64a1.72,1.72,0,0,0,.9.8,5.26,5.26,0,1,1-7.09,4.11,2.24,2.24,0,0,0-.26-1.41l-4.09-7.34a2.27,2.27,0,0,0-2-1.17H5.34a2.28,2.28,0,0,0-2,3.39L20.47,46.42a2.28,2.28,0,0,0,2,1.17H50.83a2.28,2.28,0,0,0,2-3.39L35.58,13.58A2.26,2.26,0,0,0,33.6,12.42Z"/><path class="cls-3" d="M71,87.51,111,15.8a2.28,2.28,0,0,0-2-3.38h-7.61a2.28,2.28,0,0,0-2,1.16L69.54,67.08a2.27,2.27,0,0,1-4,0L58,53.41a2.28,2.28,0,0,0-2-1.17H27.56a2.27,2.27,0,0,0-2,3.38l32.79,58.78a2.27,2.27,0,0,0,4,0l5-9a2.28,2.28,0,0,0,0-2.21L53.7,78.58A5.28,5.28,0,0,0,51,76.28a6.3,6.3,0,1,1,8.64-5.85,6.88,6.88,0,0,1-.1,1.13,5.35,5.35,0,0,0,.59,3.55l6.92,12.4A2.27,2.27,0,0,0,71,87.51Z"/></svg>